{"title":"Kanye West - Power [KingPinVideos]","uid":5742206,"size":34450702,"categoryP":"other","categoryS":"other","magnet":"?xt=urn:btih:f87c070ce975cdb579eb39d359d0566890ccd1eb&amp;dn=Kanye+West+-+Power+%5BKingPinVideos%5D&amp;tr=udp%3A%2F%2Ftracker.openbittorrent.com%3A80&amp;tr=udp%3A%2F%2Fopen.demonii.com%3A1337&amp;tr=udp%3A%2F%2Ftracker.coppersurfer.tk%3A6969&amp;tr=udp%3A%2F%2Fexodus.desync.com%3A6969","seeders":0,"leechers":0,"uploader":"KingPinMan","files":4,"time":1281073707,"description":"[img]http://a.imageshack.us/img529/3489/kanyepower.png[/img]\n\n[img]http://a.imageshack.us/img43/6901/kanyewestpowe3.png[/img]\n\n[code]General\nComplete name                    : Kanye West - Power [KingPinVideos].mpg\nFormat                           : MPEG-PS\nFile size                        : 32.7 MiB\nDuration                         : 1mn 37s\nOverall bit rate                 : 2 808 Kbps\nWriting library                  : encoded by TMPGEnc 4.0 XPress Version. 4.7.4.299\n\nVideo\nID                               : 224 (0xE0)\nFormat                           : MPEG Video\nFormat version                   : Version 1\nFormat settings, BVOP            : Yes\nFormat settings, Matrix          : Default\nDuration                         : 1mn 37s\nBit rate mode                    : Variable\nBit rate                         : 2 504 Kbps\nNominal bit rate                 : 2 700 Kbps\nWidth                            : 384 pixels\nHeight                           : 208 pixels\nDisplay aspect ratio             : 16:9\nFrame rate                       : 29.970 fps\nResolution                       : 8 bits\nScan type                        : Progressive\nBits/(Pixel*Frame)               : 1.046\nStream size                      : 29.2 MiB (89%)\nWriting library                  : TMPGEnc XPress 4.7.4.299\n\nAudio\nID                               : 192 (0xC0)\nFormat                           : MPEG Audio\nFormat version                   : Version 1\nFormat profile                   : Layer 2\nDuration                         : 1mn 37s\nBit rate mode                    : Constant\nBit rate                         : 192 Kbps\nChannel(s)                       : 2 channels\nSampling rate                    : 48.0 KHz\nStream size                      : 2.24 MiB (7%)\n[/code]","torrent":{"xt":"urn:btih:f87c070ce975cdb579eb39d359d0566890ccd1eb","amp;dn":"Kanye+West+-+Power+%5BKingPinVideos%5D","amp;tr":["udp%3A%2F%2Ftracker.openbittorrent.com%3A80","udp%3A%2F%2Fopen.demonii.com%3A1337","udp%3A%2F%2Ftracker.coppersurfer.tk%3A6969","udp%3A%2F%2Fexodus.desync.com%3A6969"],"infoHash":"f87c070ce975cdb579eb39d359d0566890ccd1eb","infoHashBuffer":{"type":"Buffer","data":[248,124,7,12,233,117,205,181,121,235,57,211,89,208,86,104,144,204,209,235]},"announce":[],"urlList":[]}}